<svg width="397" height="100" viewBox="0 0 397 100" fill="none" xmlns="http://www.w3.org/2000/svg">
<path d="M142.5 29.88C146.94 29.88 150.82 30.76 154.14 32.52C157.46 34.28 160.02 36.76 161.82 39.96C163.66 43.12 164.58 46.78 164.58 50.94C164.58 55.06 163.66 58.72 161.82 61.92C160.02 65.12 157.44 67.6 154.08 69.36C150.76 71.12 146.9 72 142.5 72H126.72V29.88H142.5ZM141.84 63.12C145.72 63.12 148.74 62.06 150.9 59.94C153.06 57.82 154.14 54.82 154.14 50.94C154.14 47.06 153.06 44.04 150.9 41.88C148.74 39.72 145.72 38.64 141.84 38.64H136.98V63.12H141.84ZM189.634 72.42C185.674 72.42 182.034 71.5 178.714 69.66C175.434 67.82 172.814 65.26 170.854 61.98C168.934 58.66 167.974 54.94 167.974 50.82C167.974 46.7 168.934 43 170.854 39.72C172.814 36.44 175.434 33.88 178.714 32.04C182.034 30.2 185.674 29.28 189.634 29.28C193.594 29.28 197.214 30.2 200.494 32.04C203.814 33.88 206.414 36.44 208.294 39.72C210.214 43 211.174 46.7 211.174 50.82C211.174 54.94 210.214 58.66 208.294 61.98C206.374 65.26 203.774 67.82 200.494 69.66C197.214 71.5 193.594 72.42 189.634 72.42ZM189.634 63.06C192.994 63.06 195.674 61.94 197.674 59.7C199.714 57.46 200.734 54.5 200.734 50.82C200.734 47.1 199.714 44.14 197.674 41.94C195.674 39.7 192.994 38.58 189.634 38.58C186.234 38.58 183.514 39.68 181.474 41.88C179.474 44.08 178.474 47.06 178.474 50.82C178.474 54.54 179.474 57.52 181.474 59.76C183.514 61.96 186.234 63.06 189.634 63.06ZM237.762 72L229.002 56.1H226.542V72H216.282V29.88H233.502C236.822 29.88 239.642 30.46 241.962 31.62C244.322 32.78 246.082 34.38 247.242 36.42C248.402 38.42 248.982 40.66 248.982 43.14C248.982 45.94 248.182 48.44 246.582 50.64C245.022 52.84 242.702 54.4 239.622 55.32L249.342 72H237.762ZM226.542 48.84H232.902C234.782 48.84 236.182 48.38 237.102 47.46C238.062 46.54 238.542 45.24 238.542 43.56C238.542 41.96 238.062 40.7 237.102 39.78C236.182 38.86 234.782 38.4 232.902 38.4H226.542V48.84ZM294.362 29.88L279.422 72H266.582L251.642 29.88H262.562L273.002 61.68L283.502 29.88H294.362ZM308.31 29.88V72H298.05V29.88H308.31ZM325.406 64.08H338.846V72H315.146V29.88H325.406V64.08ZM353.4 64.08H366.84V72H343.14V29.88H353.4V64.08ZM381.393 38.1V46.62H395.133V54.54H381.393V63.78H396.933V72H371.133V29.88H396.933V38.1H381.393Z" fill="white"/>
<path d="M34.375 4.6875C34.375 2.08984 32.2852 0 29.6875 0C27.0898 0 25 2.08984 25 4.6875V12.5C18.1055 12.5 12.5 18.1055 12.5 25H4.6875C2.08984 25 0 27.0898 0 29.6875C0 32.2852 2.08984 34.375 4.6875 34.375H12.5V45.3125H4.6875C2.08984 45.3125 0 47.4023 0 50C0 52.5977 2.08984 54.6875 4.6875 54.6875H12.5V65.625H4.6875C2.08984 65.625 0 67.7148 0 70.3125C0 72.9102 2.08984 75 4.6875 75H12.5C12.5 81.8945 18.1055 87.5 25 87.5V95.3125C25 97.9102 27.0898 100 29.6875 100C32.2852 100 34.375 97.9102 34.375 95.3125V87.5H45.3125V95.3125C45.3125 97.9102 47.4023 100 50 100C52.5977 100 54.6875 97.9102 54.6875 95.3125V87.5H65.625V95.3125C65.625 97.9102 67.7148 100 70.3125 100C72.9102 100 75 97.9102 75 95.3125V87.5C81.8945 87.5 87.5 81.8945 87.5 75H95.3125C97.9102 75 100 72.9102 100 70.3125C100 67.7148 97.9102 65.625 95.3125 65.625H87.5V54.6875H95.3125C97.9102 54.6875 100 52.5977 100 50C100 47.4023 97.9102 45.3125 95.3125 45.3125H87.5V34.375H95.3125C97.9102 34.375 100 32.2852 100 29.6875C100 27.0898 97.9102 25 95.3125 25H87.5C87.5 18.1055 81.8945 12.5 75 12.5V4.6875C75 2.08984 72.9102 0 70.3125 0C67.7148 0 65.625 2.08984 65.625 4.6875V12.5H54.6875V4.6875C54.6875 2.08984 52.5977 0 50 0C47.4023 0 45.3125 2.08984 45.3125 4.6875V12.5H34.375V4.6875ZM31.25 25H68.75C72.207 25 75 27.793 75 31.25V68.75C75 72.207 72.207 75 68.75 75H31.25C27.793 75 25 72.207 25 68.75V31.25C25 27.793 27.793 25 31.25 25ZM68.75 31.25H31.25V68.75H68.75V31.25Z" fill="white"/>
</svg>
