<svg width="441" height="148" viewBox="0 0 441 148" fill="none" xmlns="http://www.w3.org/2000/svg">
<path d="M186.5 49.88C190.94 49.88 194.82 50.76 198.14 52.52C201.46 54.28 204.02 56.76 205.82 59.96C207.66 63.12 208.58 66.78 208.58 70.94C208.58 75.06 207.66 78.72 205.82 81.92C204.02 85.12 201.44 87.6 198.08 89.36C194.76 91.12 190.9 92 186.5 92H170.72V49.88H186.5ZM185.84 83.12C189.72 83.12 192.74 82.06 194.9 79.94C197.06 77.82 198.14 74.82 198.14 70.94C198.14 67.06 197.06 64.04 194.9 61.88C192.74 59.72 189.72 58.64 185.84 58.64H180.98V83.12H185.84ZM233.634 92.42C229.674 92.42 226.034 91.5 222.714 89.66C219.434 87.82 216.814 85.26 214.854 81.98C212.934 78.66 211.974 74.94 211.974 70.82C211.974 66.7 212.934 63 214.854 59.72C216.814 56.44 219.434 53.88 222.714 52.04C226.034 50.2 229.674 49.28 233.634 49.28C237.594 49.28 241.214 50.2 244.494 52.04C247.814 53.88 250.414 56.44 252.294 59.72C254.214 63 255.174 66.7 255.174 70.82C255.174 74.94 254.214 78.66 252.294 81.98C250.374 85.26 247.774 87.82 244.494 89.66C241.214 91.5 237.594 92.42 233.634 92.42ZM233.634 83.06C236.994 83.06 239.674 81.94 241.674 79.7C243.714 77.46 244.734 74.5 244.734 70.82C244.734 67.1 243.714 64.14 241.674 61.94C239.674 59.7 236.994 58.58 233.634 58.58C230.234 58.58 227.514 59.68 225.474 61.88C223.474 64.08 222.474 67.06 222.474 70.82C222.474 74.54 223.474 77.52 225.474 79.76C227.514 81.96 230.234 83.06 233.634 83.06ZM281.762 92L273.002 76.1H270.542V92H260.282V49.88H277.502C280.822 49.88 283.642 50.46 285.962 51.62C288.322 52.78 290.082 54.38 291.242 56.42C292.402 58.42 292.982 60.66 292.982 63.14C292.982 65.94 292.182 68.44 290.582 70.64C289.022 72.84 286.702 74.4 283.622 75.32L293.342 92H281.762ZM270.542 68.84H276.902C278.782 68.84 280.182 68.38 281.102 67.46C282.062 66.54 282.542 65.24 282.542 63.56C282.542 61.96 282.062 60.7 281.102 59.78C280.182 58.86 278.782 58.4 276.902 58.4H270.542V68.84ZM338.362 49.88L323.422 92H310.582L295.642 49.88H306.562L317.002 81.68L327.502 49.88H338.362ZM352.31 49.88V92H342.05V49.88H352.31ZM369.406 84.08H382.846V92H359.146V49.88H369.406V84.08ZM397.4 84.08H410.84V92H387.14V49.88H397.4V84.08ZM425.393 58.1V66.62H439.133V74.54H425.393V83.78H440.933V92H415.133V49.88H440.933V58.1H425.393Z" fill="#F8F8FC"/>
<path d="M175.256 113.126C174.428 113.126 173.696 112.982 173.06 112.694C172.436 112.406 171.944 112.004 171.584 111.488C171.224 110.972 171.032 110.396 171.008 109.76H172.34C172.4 110.372 172.67 110.912 173.15 111.38C173.63 111.836 174.332 112.064 175.256 112.064C176.108 112.064 176.78 111.848 177.272 111.416C177.776 110.972 178.028 110.414 178.028 109.742C178.028 109.202 177.89 108.77 177.614 108.446C177.338 108.11 176.996 107.864 176.588 107.708C176.18 107.54 175.616 107.36 174.896 107.168C174.056 106.94 173.39 106.718 172.898 106.502C172.406 106.286 171.986 105.95 171.638 105.494C171.29 105.038 171.116 104.42 171.116 103.64C171.116 102.992 171.284 102.416 171.62 101.912C171.956 101.396 172.43 100.994 173.042 100.706C173.654 100.418 174.356 100.274 175.148 100.274C176.312 100.274 177.248 100.562 177.956 101.138C178.676 101.702 179.09 102.434 179.198 103.334H177.83C177.746 102.818 177.464 102.362 176.984 101.966C176.504 101.558 175.856 101.354 175.04 101.354C174.284 101.354 173.654 101.558 173.15 101.966C172.646 102.362 172.394 102.908 172.394 103.604C172.394 104.132 172.532 104.558 172.808 104.882C173.084 105.206 173.426 105.452 173.834 105.62C174.254 105.788 174.818 105.968 175.526 106.16C176.342 106.388 177.002 106.616 177.506 106.844C178.01 107.06 178.436 107.396 178.784 107.852C179.132 108.308 179.306 108.92 179.306 109.688C179.306 110.276 179.15 110.834 178.838 111.362C178.526 111.89 178.064 112.316 177.452 112.64C176.84 112.964 176.108 113.126 175.256 113.126ZM185.863 113.144C184.939 113.144 184.105 112.94 183.361 112.532C182.629 112.112 182.047 111.524 181.615 110.768C181.195 110 180.985 109.106 180.985 108.086C180.985 107.066 181.201 106.178 181.633 105.422C182.065 104.654 182.653 104.066 183.397 103.658C184.141 103.238 184.975 103.028 185.899 103.028C186.823 103.028 187.657 103.238 188.401 103.658C189.157 104.066 189.745 104.654 190.165 105.422C190.597 106.178 190.813 107.066 190.813 108.086C190.813 109.094 190.597 109.982 190.165 110.75C189.733 111.518 189.139 112.112 188.383 112.532C187.627 112.94 186.787 113.144 185.863 113.144ZM185.863 112.046C186.511 112.046 187.111 111.902 187.663 111.614C188.215 111.314 188.659 110.87 188.995 110.282C189.343 109.682 189.517 108.95 189.517 108.086C189.517 107.222 189.349 106.496 189.013 105.908C188.677 105.308 188.233 104.864 187.681 104.576C187.129 104.276 186.529 104.126 185.881 104.126C185.233 104.126 184.633 104.276 184.081 104.576C183.529 104.864 183.085 105.308 182.749 105.908C182.425 106.496 182.263 107.222 182.263 108.086C182.263 108.95 182.425 109.682 182.749 110.282C183.085 110.87 183.523 111.314 184.063 111.614C184.615 111.902 185.215 112.046 185.863 112.046ZM196.8 104.234H194.514V113H193.254V104.234H191.886V103.172H193.254V102.488C193.254 101.42 193.524 100.634 194.064 100.13C194.616 99.626 195.504 99.374 196.728 99.374V100.454C195.912 100.454 195.336 100.61 195 100.922C194.676 101.234 194.514 101.756 194.514 102.488V103.172H196.8V104.234ZM200.241 104.234V110.336C200.241 110.936 200.355 111.35 200.583 111.578C200.811 111.806 201.213 111.92 201.789 111.92H202.941V113H201.591C200.703 113 200.043 112.796 199.611 112.388C199.179 111.968 198.963 111.284 198.963 110.336V104.234H197.595V103.172H198.963V100.706H200.241V103.172H202.941V104.234H200.241ZM217.799 103.172L214.721 113H213.461L210.743 104.756L208.025 113H206.747L203.669 103.172H204.947L207.395 111.722L210.149 103.172H211.409L214.127 111.74L216.557 103.172H217.799ZM218.761 108.068C218.761 107.06 218.959 106.178 219.355 105.422C219.763 104.654 220.321 104.066 221.029 103.658C221.749 103.238 222.559 103.028 223.459 103.028C224.395 103.028 225.199 103.244 225.871 103.676C226.555 104.108 227.047 104.66 227.347 105.332V103.172H228.607V113H227.347V110.822C227.035 111.494 226.537 112.052 225.853 112.496C225.181 112.928 224.377 113.144 223.441 113.144C222.553 113.144 221.749 112.934 221.029 112.514C220.321 112.094 219.763 111.5 219.355 110.732C218.959 109.964 218.761 109.076 218.761 108.068ZM227.347 108.086C227.347 107.294 227.185 106.598 226.861 105.998C226.537 105.398 226.093 104.936 225.529 104.612C224.977 104.288 224.365 104.126 223.693 104.126C222.997 104.126 222.373 104.282 221.821 104.594C221.269 104.906 220.831 105.362 220.507 105.962C220.195 106.55 220.039 107.252 220.039 108.068C220.039 108.872 220.195 109.58 220.507 110.192C220.831 110.792 221.269 111.254 221.821 111.578C222.373 111.89 222.997 112.046 223.693 112.046C224.365 112.046 224.977 111.884 225.529 111.56C226.093 111.236 226.537 110.774 226.861 110.174C227.185 109.574 227.347 108.878 227.347 108.086ZM232.563 104.918C232.839 104.306 233.259 103.832 233.823 103.496C234.399 103.16 235.101 102.992 235.929 102.992V104.306H235.587C234.675 104.306 233.943 104.552 233.391 105.044C232.839 105.536 232.563 106.358 232.563 107.51V113H231.303V103.172H232.563V104.918ZM246.537 107.582C246.537 108.014 246.525 108.344 246.501 108.572H238.347C238.383 109.316 238.563 109.952 238.887 110.48C239.211 111.008 239.637 111.41 240.165 111.686C240.693 111.95 241.269 112.082 241.893 112.082C242.709 112.082 243.393 111.884 243.945 111.488C244.509 111.092 244.881 110.558 245.061 109.886H246.393C246.153 110.846 245.637 111.632 244.845 112.244C244.065 112.844 243.081 113.144 241.893 113.144C240.969 113.144 240.141 112.94 239.409 112.532C238.677 112.112 238.101 111.524 237.681 110.768C237.273 110 237.069 109.106 237.069 108.086C237.069 107.066 237.273 106.172 237.681 105.404C238.089 104.636 238.659 104.048 239.391 103.64C240.123 103.232 240.957 103.028 241.893 103.028C242.829 103.028 243.645 103.232 244.341 103.64C245.049 104.048 245.589 104.6 245.961 105.296C246.345 105.98 246.537 106.742 246.537 107.582ZM245.259 107.546C245.271 106.814 245.121 106.19 244.809 105.674C244.509 105.158 244.095 104.768 243.567 104.504C243.039 104.24 242.463 104.108 241.839 104.108C240.903 104.108 240.105 104.408 239.445 105.008C238.785 105.608 238.419 106.454 238.347 107.546H245.259ZM252.846 108.068C252.846 107.06 253.044 106.178 253.44 105.422C253.848 104.654 254.406 104.066 255.114 103.658C255.834 103.238 256.644 103.028 257.544 103.028C258.48 103.028 259.284 103.244 259.956 103.676C260.64 104.108 261.132 104.66 261.432 105.332V103.172H262.692V113H261.432V110.822C261.12 111.494 260.622 112.052 259.938 112.496C259.266 112.928 258.462 113.144 257.526 113.144C256.638 113.144 255.834 112.934 255.114 112.514C254.406 112.094 253.848 111.5 253.44 110.732C253.044 109.964 252.846 109.076 252.846 108.068ZM261.432 108.086C261.432 107.294 261.27 106.598 260.946 105.998C260.622 105.398 260.178 104.936 259.614 104.612C259.062 104.288 258.45 104.126 257.778 104.126C257.082 104.126 256.458 104.282 255.906 104.594C255.354 104.906 254.916 105.362 254.592 105.962C254.28 106.55 254.124 107.252 254.124 108.068C254.124 108.872 254.28 109.58 254.592 110.192C254.916 110.792 255.354 111.254 255.906 111.578C256.458 111.89 257.082 112.046 257.778 112.046C258.45 112.046 259.062 111.884 259.614 111.56C260.178 111.236 260.622 110.774 260.946 110.174C261.27 109.574 261.432 108.878 261.432 108.086ZM269.996 102.992C271.172 102.992 272.132 103.358 272.876 104.09C273.62 104.81 273.992 105.86 273.992 107.24V113H272.75V107.384C272.75 106.316 272.48 105.5 271.94 104.936C271.412 104.372 270.686 104.09 269.762 104.09C268.814 104.09 268.058 104.39 267.494 104.99C266.93 105.59 266.648 106.472 266.648 107.636V113H265.388V103.172H266.648V104.846C266.96 104.246 267.41 103.79 267.998 103.478C268.586 103.154 269.252 102.992 269.996 102.992ZM276.023 108.068C276.023 107.06 276.227 106.178 276.635 105.422C277.043 104.654 277.601 104.066 278.309 103.658C279.029 103.238 279.839 103.028 280.739 103.028C281.603 103.028 282.383 103.238 283.079 103.658C283.775 104.078 284.285 104.624 284.609 105.296V99.68H285.869V113H284.609V110.804C284.309 111.488 283.817 112.052 283.133 112.496C282.449 112.928 281.645 113.144 280.721 113.144C279.821 113.144 279.011 112.934 278.291 112.514C277.583 112.094 277.025 111.5 276.617 110.732C276.221 109.964 276.023 109.076 276.023 108.068ZM284.609 108.086C284.609 107.294 284.447 106.598 284.123 105.998C283.799 105.398 283.355 104.936 282.791 104.612C282.239 104.288 281.627 104.126 280.955 104.126C280.259 104.126 279.635 104.282 279.083 104.594C278.531 104.906 278.093 105.362 277.769 105.962C277.457 106.55 277.301 107.252 277.301 108.068C277.301 108.872 277.457 109.58 277.769 110.192C278.093 110.792 278.531 111.254 279.083 111.578C279.635 111.89 280.259 112.046 280.955 112.046C281.627 112.046 282.239 111.884 282.791 111.56C283.355 111.236 283.799 110.774 284.123 110.174C284.447 109.574 284.609 108.878 284.609 108.086ZM292.749 106.7C292.749 105.464 293.019 104.36 293.559 103.388C294.099 102.404 294.837 101.642 295.773 101.102C296.709 100.55 297.753 100.274 298.905 100.274C300.309 100.274 301.509 100.61 302.505 101.282C303.513 101.942 304.245 102.878 304.701 104.09H303.225C302.865 103.238 302.313 102.572 301.569 102.092C300.837 101.612 299.949 101.372 298.905 101.372C297.981 101.372 297.147 101.588 296.403 102.02C295.671 102.452 295.095 103.076 294.675 103.892C294.255 104.696 294.045 105.632 294.045 106.7C294.045 107.768 294.255 108.704 294.675 109.508C295.095 110.312 295.671 110.93 296.403 111.362C297.147 111.794 297.981 112.01 298.905 112.01C299.949 112.01 300.837 111.776 301.569 111.308C302.313 110.828 302.865 110.168 303.225 109.328H304.701C304.245 110.528 303.513 111.458 302.505 112.118C301.497 112.778 300.297 113.108 298.905 113.108C297.753 113.108 296.709 112.838 295.773 112.298C294.837 111.746 294.099 110.984 293.559 110.012C293.019 109.04 292.749 107.936 292.749 106.7ZM311.333 113.144C310.409 113.144 309.575 112.94 308.831 112.532C308.099 112.112 307.517 111.524 307.085 110.768C306.665 110 306.455 109.106 306.455 108.086C306.455 107.066 306.671 106.178 307.103 105.422C307.535 104.654 308.123 104.066 308.867 103.658C309.611 103.238 310.445 103.028 311.369 103.028C312.293 103.028 313.127 103.238 313.871 103.658C314.627 104.066 315.215 104.654 315.635 105.422C316.067 106.178 316.283 107.066 316.283 108.086C316.283 109.094 316.067 109.982 315.635 110.75C315.203 111.518 314.609 112.112 313.853 112.532C313.097 112.94 312.257 113.144 311.333 113.144ZM311.333 112.046C311.981 112.046 312.581 111.902 313.133 111.614C313.685 111.314 314.129 110.87 314.465 110.282C314.813 109.682 314.987 108.95 314.987 108.086C314.987 107.222 314.819 106.496 314.483 105.908C314.147 105.308 313.703 104.864 313.151 104.576C312.599 104.276 311.999 104.126 311.351 104.126C310.703 104.126 310.103 104.276 309.551 104.576C308.999 104.864 308.555 105.308 308.219 105.908C307.895 106.496 307.733 107.222 307.733 108.086C307.733 108.95 307.895 109.682 308.219 110.282C308.555 110.87 308.993 111.314 309.533 111.614C310.085 111.902 310.685 112.046 311.333 112.046ZM323.008 102.992C324.184 102.992 325.144 103.358 325.888 104.09C326.632 104.81 327.004 105.86 327.004 107.24V113H325.762V107.384C325.762 106.316 325.492 105.5 324.952 104.936C324.424 104.372 323.698 104.09 322.774 104.09C321.826 104.09 321.07 104.39 320.506 104.99C319.942 105.59 319.66 106.472 319.66 107.636V113H318.4V103.172H319.66V104.846C319.972 104.246 320.422 103.79 321.01 103.478C321.598 103.154 322.264 102.992 323.008 102.992ZM332.995 113.144C331.867 113.144 330.943 112.886 330.223 112.37C329.515 111.842 329.119 111.128 329.035 110.228H330.331C330.391 110.78 330.649 111.23 331.105 111.578C331.573 111.914 332.197 112.082 332.977 112.082C333.661 112.082 334.195 111.92 334.579 111.596C334.975 111.272 335.173 110.87 335.173 110.39C335.173 110.054 335.065 109.778 334.849 109.562C334.633 109.346 334.357 109.178 334.021 109.058C333.697 108.926 333.253 108.788 332.689 108.644C331.957 108.452 331.363 108.26 330.907 108.068C330.451 107.876 330.061 107.594 329.737 107.222C329.425 106.838 329.269 106.328 329.269 105.692C329.269 105.212 329.413 104.768 329.701 104.36C329.989 103.952 330.397 103.628 330.925 103.388C331.453 103.148 332.053 103.028 332.725 103.028C333.781 103.028 334.633 103.298 335.281 103.838C335.929 104.366 336.277 105.098 336.325 106.034H335.065C335.029 105.458 334.801 104.996 334.381 104.648C333.973 104.288 333.409 104.108 332.689 104.108C332.053 104.108 331.537 104.258 331.141 104.558C330.745 104.858 330.547 105.23 330.547 105.674C330.547 106.058 330.661 106.376 330.889 106.628C331.129 106.868 331.423 107.06 331.771 107.204C332.119 107.336 332.587 107.486 333.175 107.654C333.883 107.846 334.447 108.032 334.867 108.212C335.287 108.392 335.647 108.656 335.947 109.004C336.247 109.352 336.403 109.814 336.415 110.39C336.415 110.918 336.271 111.392 335.983 111.812C335.695 112.22 335.293 112.544 334.777 112.784C334.261 113.024 333.667 113.144 332.995 113.144ZM347.121 103.172V113H345.861V111.272C345.573 111.884 345.129 112.352 344.529 112.676C343.929 113 343.257 113.162 342.513 113.162C341.337 113.162 340.377 112.802 339.633 112.082C338.889 111.35 338.517 110.294 338.517 108.914V103.172H339.759V108.77C339.759 109.838 340.023 110.654 340.551 111.218C341.091 111.782 341.823 112.064 342.747 112.064C343.695 112.064 344.451 111.764 345.015 111.164C345.579 110.564 345.861 109.682 345.861 108.518V103.172H347.121ZM351.077 99.68V113H349.817V99.68H351.077ZM355.388 104.234V110.336C355.388 110.936 355.502 111.35 355.73 111.578C355.958 111.806 356.36 111.92 356.936 111.92H358.088V113H356.738C355.85 113 355.19 112.796 354.758 112.388C354.326 111.968 354.11 111.284 354.11 110.336V104.234H352.742V103.172H354.11V100.706H355.388V103.172H358.088V104.234H355.388ZM360.616 101.318C360.364 101.318 360.148 101.228 359.968 101.048C359.788 100.868 359.698 100.646 359.698 100.382C359.698 100.118 359.788 99.902 359.968 99.734C360.148 99.554 360.364 99.464 360.616 99.464C360.868 99.464 361.084 99.554 361.264 99.734C361.444 99.902 361.534 100.118 361.534 100.382C361.534 100.646 361.444 100.868 361.264 101.048C361.084 101.228 360.868 101.318 360.616 101.318ZM361.246 103.172V113H359.986V103.172H361.246ZM368.528 102.992C369.704 102.992 370.664 103.358 371.408 104.09C372.152 104.81 372.524 105.86 372.524 107.24V113H371.282V107.384C371.282 106.316 371.012 105.5 370.472 104.936C369.944 104.372 369.218 104.09 368.294 104.09C367.346 104.09 366.59 104.39 366.026 104.99C365.462 105.59 365.18 106.472 365.18 107.636V113H363.92V103.172H365.18V104.846C365.492 104.246 365.942 103.79 366.53 103.478C367.118 103.154 367.784 102.992 368.528 102.992ZM379.252 103.028C380.176 103.028 380.98 103.244 381.664 103.676C382.348 104.108 382.84 104.654 383.14 105.314V103.172H384.4V113.252C384.4 114.152 384.202 114.95 383.806 115.646C383.422 116.342 382.882 116.876 382.186 117.248C381.49 117.632 380.698 117.824 379.81 117.824C378.55 117.824 377.5 117.524 376.66 116.924C375.832 116.324 375.316 115.508 375.112 114.476H376.354C376.57 115.16 376.978 115.706 377.578 116.114C378.19 116.522 378.934 116.726 379.81 116.726C380.446 116.726 381.016 116.588 381.52 116.312C382.024 116.048 382.42 115.652 382.708 115.124C382.996 114.596 383.14 113.972 383.14 113.252V110.822C382.828 111.494 382.33 112.052 381.646 112.496C380.974 112.928 380.176 113.144 379.252 113.144C378.352 113.144 377.542 112.934 376.822 112.514C376.114 112.094 375.556 111.5 375.148 110.732C374.752 109.964 374.554 109.076 374.554 108.068C374.554 107.06 374.752 106.178 375.148 105.422C375.556 104.654 376.114 104.066 376.822 103.658C377.542 103.238 378.352 103.028 379.252 103.028ZM383.14 108.086C383.14 107.294 382.978 106.598 382.654 105.998C382.33 105.398 381.886 104.936 381.322 104.612C380.77 104.288 380.158 104.126 379.486 104.126C378.79 104.126 378.166 104.282 377.614 104.594C377.062 104.906 376.624 105.362 376.3 105.962C375.988 106.55 375.832 107.252 375.832 108.068C375.832 108.872 375.988 109.58 376.3 110.192C376.624 110.792 377.062 111.254 377.614 111.578C378.166 111.89 378.79 112.046 379.486 112.046C380.158 112.046 380.77 111.884 381.322 111.56C381.886 111.236 382.33 110.774 382.654 110.174C382.978 109.574 383.14 108.878 383.14 108.086Z" fill="#F8F8FC"/>
<rect width="148" height="148" rx="15" fill="#F8F8FC"/>
<path d="M58.375 28.6875C58.375 26.0898 56.2852 24 53.6875 24C51.0898 24 49 26.0898 49 28.6875V36.5C42.1055 36.5 36.5 42.1055 36.5 49H28.6875C26.0898 49 24 51.0898 24 53.6875C24 56.2852 26.0898 58.375 28.6875 58.375H36.5V69.3125H28.6875C26.0898 69.3125 24 71.4023 24 74C24 76.5977 26.0898 78.6875 28.6875 78.6875H36.5V89.625H28.6875C26.0898 89.625 24 91.7148 24 94.3125C24 96.9102 26.0898 99 28.6875 99H36.5C36.5 105.895 42.1055 111.5 49 111.5V119.312C49 121.91 51.0898 124 53.6875 124C56.2852 124 58.375 121.91 58.375 119.312V111.5H69.3125V119.312C69.3125 121.91 71.4023 124 74 124C76.5977 124 78.6875 121.91 78.6875 119.312V111.5H89.625V119.312C89.625 121.91 91.7148 124 94.3125 124C96.9102 124 99 121.91 99 119.312V111.5C105.895 111.5 111.5 105.895 111.5 99H119.312C121.91 99 124 96.9102 124 94.3125C124 91.7148 121.91 89.625 119.312 89.625H111.5V78.6875H119.312C121.91 78.6875 124 76.5977 124 74C124 71.4023 121.91 69.3125 119.312 69.3125H111.5V58.375H119.312C121.91 58.375 124 56.2852 124 53.6875C124 51.0898 121.91 49 119.312 49H111.5C111.5 42.1055 105.895 36.5 99 36.5V28.6875C99 26.0898 96.9102 24 94.3125 24C91.7148 24 89.625 26.0898 89.625 28.6875V36.5H78.6875V28.6875C78.6875 26.0898 76.5977 24 74 24C71.4023 24 69.3125 26.0898 69.3125 28.6875V36.5H58.375V28.6875ZM55.25 49H92.75C96.207 49 99 51.793 99 55.25V92.75C99 96.207 96.207 99 92.75 99H55.25C51.793 99 49 96.207 49 92.75V55.25C49 51.793 51.793 49 55.25 49ZM92.75 55.25H55.25V92.75H92.75V55.25Z" fill="url(#paint0_linear_0_1)"/>
<defs>
<linearGradient id="paint0_linear_0_1" x1="74" y1="24" x2="74" y2="124" gradientUnits="userSpaceOnUse">
<stop stop-color="#07AAEF"/>
<stop offset="1" stop-color="#601CE9"/>
</linearGradient>
</defs>
</svg>
