<svg width="794" height="509" viewBox="0 0 794 509" fill="none" xmlns="http://www.w3.org/2000/svg">
<g clip-path="url(#clip0_42_303)">
<path d="M119.911 420.161H406.729C410.34 420.161 413.267 417.234 413.267 413.623V7.76147C413.267 4.15045 410.34 1.22314 406.729 1.22314H119.911C116.3 1.22314 113.372 4.15045 113.372 7.76147V413.623C113.372 417.234 116.3 420.161 119.911 420.161Z" fill="white"/>
<path d="M414.49 421.385H112.149V0H414.49V421.385ZM114.595 418.939H412.044V2.44598H114.595V418.939Z" fill="#D7DCF0"/>
<path d="M346.545 67.5039C347.709 67.5039 348.652 68.4473 348.652 69.6111V73.8255C348.652 74.9893 347.709 75.9327 346.545 75.9327H180.096C178.932 75.9327 177.989 74.9893 177.989 73.8255V69.6111C177.989 68.4473 178.932 67.5039 180.096 67.5039H346.545Z" fill="#D7DCF0"/>
<path d="M346.545 87.5193C347.709 87.5193 348.652 88.4627 348.652 89.6265V93.8409C348.652 95.0047 347.709 95.9481 346.545 95.9481H180.096C178.932 95.9481 177.989 95.0047 177.989 93.8409V89.6265C177.989 88.4627 178.932 87.5193 180.096 87.5193H346.545Z" fill="#D7DCF0"/>
<path d="M346.545 107.536C347.709 107.536 348.652 108.48 348.652 109.643V113.858C348.652 115.022 347.709 115.965 346.545 115.965H180.096C178.932 115.965 177.989 115.022 177.989 113.858V109.645C177.989 108.481 178.932 107.537 180.096 107.537L346.545 107.536Z" fill="url(#paint0_linear_42_303)"/>
<path d="M233.114 210.486C236.227 208.479 236.882 204.183 234.705 201.187L224.506 187.153C222.124 183.872 217.533 183.142 214.252 185.524C213.961 185.736 213.686 185.968 213.429 186.219C196.159 195.452 186.863 208.935 197.199 224.873C197.199 227.535 197.393 230.193 197.78 232.826C197.948 233.969 198.332 235.087 198.984 236.04C200.92 238.871 204.336 239.91 207.341 238.93L224.022 233.51C227.566 232.359 229.485 228.49 228.176 225.001C226.484 220.492 227.181 214.313 233.114 210.486Z" fill="#D7DCF0"/>
<path d="M272.704 251.884C267.905 251.41 263.808 255.365 263.808 260.188V274.578C263.808 274.95 263.837 275.323 263.893 275.691C264.51 279.701 268.26 282.451 272.27 281.835C295.647 284.716 311.622 274.55 312.584 252.246C312.737 251.933 312.867 251.61 312.975 251.278C314.22 247.424 312.106 243.29 308.252 242.044L294.286 237.506C289.468 235.94 284.46 239.069 283.617 244.064C282.855 248.576 279.877 252.592 272.704 251.884Z" fill="#D7DCF0"/>
<path d="M186.358 265.955C191.206 294.727 216.452 305.643 242.783 307.369C243.298 307.448 243.819 307.488 244.341 307.488C250.02 307.491 254.626 302.89 254.629 297.21V273.149C254.629 266.419 249.113 261.178 242.383 261.11C235.877 261.044 231.637 257.965 229.894 252.313C227.904 245.856 220.81 242.451 214.384 244.539L192.421 251.676C189.576 252.6 187.274 254.715 186.113 257.472C184.959 260.201 185.048 263.297 186.358 265.955Z" fill="#3F3D56"/>
<path d="M321.662 166.463C317.609 162.493 311.104 162.561 307.134 166.614C306.781 166.975 306.455 167.361 306.158 167.77L286.643 194.63C284.148 198.065 285.575 202.85 289.475 204.526C298.61 208.455 297.65 217.273 294.676 222.669C293.218 225.313 294.421 228.623 297.293 229.556L330.178 240.241C335.588 241.988 341.39 239.018 343.136 233.608C343.312 233.063 343.442 232.505 343.525 231.939C344.09 228.174 344.374 224.372 344.374 220.565C349.936 199.821 342.239 180.266 321.662 166.463Z" fill="url(#paint1_linear_42_303)"/>
<path d="M265.189 197.609C268.832 199.66 273.429 198.668 275.887 195.285L282.426 186.287C283.695 184.542 284.135 182.329 283.631 180.231C283.144 178.172 281.778 176.43 279.895 175.465C264.51 161.565 246.302 160.712 230.861 175.394C228.92 176.374 227.508 178.156 226.997 180.269C226.493 182.352 226.93 184.552 228.191 186.284L235.831 196.8C238.455 200.411 243.539 201.356 247.155 198.738C252.409 194.935 260.041 194.711 265.189 197.609Z" fill="#D7DCF0"/>
<path d="M179.057 378.872C179.644 376.387 182.4 375.57 184.654 375.664C186.078 375.76 187.491 375.984 188.875 376.332C190.323 376.656 191.757 377.04 193.184 377.446C195.802 378.192 198.391 379.094 201.051 379.678C203.282 380.289 205.632 380.323 207.88 379.778C210.043 379.184 211.745 377.514 212.381 375.363C213.026 373.308 212.096 371.087 210.179 370.104C208.404 369.126 206.173 369.772 205.195 371.547C205.181 371.573 205.166 371.599 205.153 371.626C204.33 373.815 204.976 376.284 206.763 377.791C207.68 378.651 208.684 379.414 209.758 380.066C210.849 380.809 212.063 381.353 213.344 381.671C215.523 382.249 217.825 381.35 219.036 379.449C219.277 378.994 219.422 378.495 219.462 377.982C219.525 377.283 218.434 377.287 218.371 377.982C218.187 379.982 215.844 380.917 214.09 380.699C212.908 380.503 211.778 380.064 210.773 379.411C209.803 378.846 208.884 378.197 208.025 377.473C206.539 376.186 205.147 374.07 206.144 372.063C206.921 370.774 208.596 370.358 209.886 371.135C210.058 371.238 210.218 371.361 210.364 371.5C211.924 372.776 211.645 375.092 210.617 376.608C209.381 378.191 207.473 379.101 205.465 379.065C203.347 379.069 201.242 378.739 199.227 378.087C196.714 377.374 194.226 376.575 191.702 375.902C190.269 375.521 188.824 375.177 187.365 374.909C185.986 374.605 184.568 374.507 183.16 374.618C180.782 374.731 178.724 376.31 178.001 378.578C177.843 379.264 178.895 379.556 179.057 378.872Z" fill="#3F3D56"/>
<path d="M222.25 350.436C222.579 350.436 222.846 351.379 222.846 352.543V356.758C222.846 357.921 222.579 358.865 222.25 358.865H175.204C174.875 358.865 174.609 357.922 174.609 356.758V352.543C174.609 351.379 174.875 350.436 175.204 350.436H222.25Z" fill="#D7DCF0"/>
<path d="M348.056 350.436C348.385 350.436 348.652 351.379 348.652 352.543V356.758C348.652 357.921 348.385 358.865 348.056 358.865H301.011C300.682 358.865 300.415 357.922 300.415 356.758V352.543C300.415 351.379 300.682 350.436 301.011 350.436H348.056Z" fill="#D7DCF0"/>
<path d="M327.109 374.175L317.77 377.261L313.101 378.805C311.667 379.417 310.114 379.702 308.556 379.64C307.406 379.563 306.395 378.847 305.942 377.787C305.743 376.724 306.199 375.646 307.101 375.049C309.329 373.354 312.147 375.08 313.727 376.835C315.658 378.982 316.752 381.755 318.563 384.003C320.175 386.02 322.22 387.65 324.546 388.772C329.194 391.078 334.739 390.604 338.928 387.543C343.851 383.746 344.353 377.164 344.379 371.422C344.36 370.87 343.897 370.439 343.345 370.458C342.821 370.477 342.4 370.897 342.382 371.422C342.359 376.625 342.063 383.005 337.317 386.261C332.772 389.381 326.8 388.553 322.613 385.229C320.456 383.309 318.662 381.017 317.315 378.461C315.821 376.015 313.966 373.654 311.153 372.705C308.666 371.801 305.887 372.773 304.503 375.028C303.312 377.035 303.972 379.627 305.978 380.819C306.134 380.911 306.295 380.993 306.46 381.065C309.722 382.619 313.453 380.798 316.593 379.76L327.644 376.108C328.858 375.707 328.338 373.777 327.113 374.182L327.109 374.175Z" fill="url(#paint2_linear_42_303)"/>
<path d="M482.904 186.051H349.222V188.497H482.904V186.051Z" fill="#3F3D56"/>
<path d="M498.122 203.244C488.681 203.244 481 195.563 481 186.122C481 176.681 488.681 169 498.122 169C507.563 169 515.244 176.681 515.244 186.122C515.244 195.563 507.563 203.244 498.122 203.244ZM498.122 171.446C490.03 171.446 483.446 178.03 483.446 186.122C483.446 194.214 490.03 200.798 498.122 200.798C506.214 200.798 512.798 194.214 512.798 186.122C512.798 178.03 506.214 171.446 498.122 171.446Z" fill="#3F3D56"/>
<path d="M498 194C502.418 194 506 190.418 506 186C506 181.582 502.418 178 498 178C493.582 178 490 181.582 490 186C490 190.418 493.582 194 498 194Z" fill="url(#paint3_linear_42_303)"/>
<path d="M177.532 276.552H43.851V278.998H177.532V276.552Z" fill="#3F3D56"/>
<path d="M-0.176611 276.516C-0.176611 267.075 7.50409 259.394 16.9452 259.394C26.3864 259.394 34.0671 267.075 34.0671 276.516C34.0671 285.957 26.3864 293.638 16.9452 293.638C7.50409 293.638 -0.176611 285.957 -0.176611 276.516ZM2.26937 276.516C2.26937 284.608 8.85308 291.192 16.9452 291.192C25.0374 291.192 31.6211 284.608 31.6211 276.516C31.6211 268.424 25.0374 261.84 16.9452 261.84C8.85308 261.84 2.26937 268.424 2.26937 276.516Z" fill="#3F3D56"/>
<path d="M16.9452 285.077C21.6733 285.077 25.5061 281.244 25.5061 276.516C25.5061 271.788 21.6733 267.955 16.9452 267.955C12.2172 267.955 8.38431 271.788 8.38431 276.516C8.38431 281.244 12.2172 285.077 16.9452 285.077Z" fill="url(#paint4_linear_42_303)"/>
</g>
<g clip-path="url(#clip1_42_303)">
<path d="M296.801 480.178C295.861 480.18 294.96 480.556 294.295 481.222C293.631 481.889 293.258 482.792 293.258 483.734C293.258 484.676 293.631 485.58 294.295 486.247C294.96 486.913 295.861 487.289 296.801 487.291H555.983C556.923 487.289 557.824 486.913 558.489 486.247C559.153 485.58 559.526 484.676 559.526 483.734C559.526 482.792 559.153 481.889 558.489 481.222C557.824 480.556 556.923 480.18 555.983 480.178H296.801Z" fill="#D7DCF0"/>
<path d="M296.801 501.515C295.861 501.514 294.958 501.887 294.292 502.553C293.626 503.218 293.251 504.121 293.249 505.063C293.247 506.005 293.618 506.91 294.282 507.578C294.945 508.246 295.846 508.623 296.786 508.627H460.643C461.11 508.627 461.571 508.535 462.002 508.356C462.432 508.177 462.824 507.915 463.153 507.585C463.483 507.255 463.745 506.863 463.923 506.431C464.101 506 464.193 505.538 464.193 505.071C464.193 504.604 464.101 504.141 463.923 503.71C463.745 503.278 463.483 502.886 463.153 502.556C462.824 502.226 462.432 501.964 462.002 501.785C461.571 501.607 461.11 501.515 460.643 501.515H296.801Z" fill="#D7DCF0"/>
<path d="M552.734 452.994C552.734 461.617 546.05 468.607 537.804 468.607C529.558 468.607 522.874 461.617 522.874 452.994C522.874 452.799 522.877 452.605 522.885 452.411C523.036 443.79 529.844 436.932 538.088 437.093C546.333 437.254 552.891 444.373 552.736 452.994H552.734Z" fill="url(#paint5_linear_42_303)"/>
<path d="M532.546 459.928L528.246 454.185L529.264 453.419L532.768 458.098L546.56 446.795L547.367 447.782L532.546 459.928Z" fill="white"/>
</g>
<g clip-path="url(#clip2_42_303)">
<path d="M611.07 212.952H764.093C766.02 212.952 767.581 212.679 767.581 212.343V174.56C767.581 174.224 766.02 173.952 764.093 173.952H611.07C609.143 173.952 607.581 174.224 607.581 174.56V212.343C607.581 212.679 609.143 212.952 611.07 212.952Z" fill="white"/>
<path d="M477.558 395.952H783.605C787.458 395.952 790.581 394.945 790.581 393.704V254.199C790.581 252.958 787.458 251.952 783.605 251.952H477.558C473.705 251.952 470.581 252.958 470.581 254.199V393.704C470.581 394.945 473.705 395.952 477.558 395.952Z" fill="white"/>
<path d="M495.113 134.952H650.049C652 134.952 653.581 134.672 653.581 134.327V95.5759C653.581 95.2312 652 94.9517 650.049 94.9517H495.113C493.163 94.9517 491.581 95.2312 491.581 95.5759V134.327C491.581 134.672 493.163 134.952 495.113 134.952Z" fill="white"/>
<path d="M786.923 396.2H473.918C472.61 396.199 471.357 395.68 470.432 394.758C469.508 393.837 468.987 392.587 468.986 391.283V255.581C468.987 254.277 469.508 253.028 470.432 252.106C471.357 251.184 472.61 250.666 473.918 250.664H786.923C788.231 250.666 789.484 251.184 790.409 252.106C791.333 253.028 791.854 254.277 791.855 255.581V391.283C791.854 392.587 791.333 393.837 790.409 394.758C789.484 395.68 788.231 396.199 786.923 396.2ZM473.918 252.631C473.133 252.632 472.381 252.943 471.826 253.496C471.272 254.049 470.96 254.799 470.959 255.581V391.283C470.96 392.065 471.272 392.815 471.826 393.368C472.381 393.921 473.133 394.232 473.918 394.233H786.923C787.708 394.232 788.46 393.921 789.015 393.368C789.569 392.815 789.881 392.065 789.882 391.283V255.581C789.881 254.799 789.569 254.049 789.015 253.496C788.46 252.943 787.708 252.632 786.923 252.631H473.918Z" fill="#D7DCF0"/>
<path d="M486.643 266.563C485.852 266.563 485.094 266.885 484.535 267.459C483.976 268.032 483.662 268.81 483.662 269.621C483.662 270.432 483.976 271.209 484.535 271.783C485.094 272.356 485.852 272.678 486.643 272.678H528.377C529.168 272.678 529.926 272.356 530.485 271.783C531.044 271.209 531.358 270.432 531.358 269.621C531.358 268.81 531.044 268.032 530.485 267.459C529.926 266.885 529.168 266.563 528.377 266.563H486.643Z" fill="#D7DCF0"/>
<path d="M769.841 287.316V342.389H491V313.392C492.931 312.145 494.873 310.904 496.833 309.705C505.204 304.554 514.165 299.737 523.93 297.951C528.548 297.086 533.28 297.026 537.919 297.776C542.819 298.589 547.509 300.287 552.152 301.99C556.732 303.676 561.323 305.414 566.112 306.392C570.779 307.313 575.57 307.408 580.27 306.673C589.236 305.321 597.66 301.697 606.048 298.42C614.489 295.124 623.187 292.011 632.322 291.601C641.341 291.191 650.249 293.333 658.806 295.991C676.254 301.405 694.07 309.435 712.545 303.928C731.305 298.344 748.561 282.224 769.351 287.006C769.548 287.043 769.723 287.154 769.841 287.316Z" fill="#D7DCF0"/>
<path d="M769.704 288.29C769.615 288.459 769.473 288.593 769.3 288.67C769.127 288.747 768.933 288.763 768.75 288.715C766.276 288.14 763.741 287.875 761.203 287.925C740.778 288.29 725.073 304.952 705.101 307.444C687.094 309.689 670.146 300.816 653.215 296.179C644.418 293.769 635.347 292.491 626.294 294.129C617.311 295.749 608.881 299.473 600.415 302.778C592.263 305.959 583.792 308.917 574.966 309.064C565.262 309.229 556.523 305.176 547.523 302.088C542.842 300.48 538.039 299.207 533.08 299.084C528.246 299.025 523.436 299.78 518.847 301.317C509.282 304.398 500.665 309.889 492.275 315.344C492.131 315.447 491.956 315.495 491.781 315.48C491.6 315.455 491.431 315.376 491.295 315.251C491.16 315.127 491.065 314.964 491.024 314.783C490.982 314.603 490.995 314.414 491.062 314.242C491.129 314.07 491.246 313.922 491.397 313.819L491.781 313.571C493.706 312.316 495.642 311.067 497.595 309.859C505.939 304.675 514.87 299.826 524.603 298.029C529.206 297.158 533.922 297.098 538.545 297.852C543.429 298.671 548.104 300.38 552.732 302.094C557.296 303.791 561.872 305.541 566.646 306.525C571.297 307.452 576.073 307.548 580.757 306.808C589.694 305.447 598.089 301.8 606.45 298.5C614.864 295.183 623.533 292.049 632.638 291.637C641.627 291.224 650.505 293.381 659.035 296.055C676.425 301.505 694.182 309.588 712.596 304.044C731.295 298.424 748.493 282.198 769.215 287.012C769.412 287.049 769.586 287.161 769.704 287.324C769.794 287.469 769.841 287.636 769.841 287.807C769.841 287.978 769.794 288.146 769.704 288.29Z" fill="url(#paint6_linear_42_303)"/>
<path d="M529.524 302.03C531.888 302.03 533.804 300.387 533.804 298.361C533.804 296.335 531.888 294.692 529.524 294.692C527.16 294.692 525.243 296.335 525.243 298.361C525.243 300.387 527.16 302.03 529.524 302.03Z" fill="url(#paint7_linear_42_303)"/>
<path d="M632.255 297.138C634.619 297.138 636.535 295.495 636.535 293.469C636.535 291.443 634.619 289.8 632.255 289.8C629.891 289.8 627.974 291.443 627.974 293.469C627.974 295.495 629.891 297.138 632.255 297.138Z" fill="url(#paint8_linear_42_303)"/>
<path d="M758.223 292.246C760.587 292.246 762.503 290.33 762.503 287.966C762.503 285.601 760.587 283.685 758.223 283.685C755.859 283.685 753.942 285.601 753.942 287.966C753.942 290.33 755.859 292.246 758.223 292.246Z" fill="url(#paint9_linear_42_303)"/>
<path d="M527.002 365.625C526.211 365.625 525.453 365.947 524.894 366.521C524.335 367.094 524.021 367.872 524.021 368.683C524.021 369.494 524.335 370.271 524.894 370.845C525.453 371.418 526.211 371.74 527.002 371.74H568.736C569.527 371.74 570.285 371.418 570.844 370.845C571.403 370.271 571.717 369.494 571.717 368.683C571.717 367.872 571.403 367.094 570.844 366.521C570.285 365.947 569.527 365.625 568.736 365.625H527.002Z" fill="#D7DCF0"/>
<path d="M500.784 379.078C506.863 379.078 511.791 374.15 511.791 368.071C511.791 361.992 506.863 357.064 500.784 357.064C494.705 357.064 489.777 361.992 489.777 368.071C489.777 374.15 494.705 379.078 500.784 379.078Z" fill="url(#paint10_linear_42_303)"/>
<path d="M627.21 365.625C626.44 365.625 625.701 365.947 625.156 366.521C624.612 367.094 624.306 367.872 624.306 368.683C624.306 369.494 624.612 370.271 625.156 370.845C625.701 371.418 626.44 371.74 627.21 371.74H667.875C668.645 371.74 669.384 371.418 669.928 370.845C670.473 370.271 670.779 369.494 670.779 368.683C670.779 367.872 670.473 367.094 669.928 366.521C669.384 365.947 668.645 365.625 667.875 365.625H627.21Z" fill="#D7DCF0"/>
<path d="M599.846 379.078C605.925 379.078 610.853 374.15 610.853 368.071C610.853 361.992 605.925 357.064 599.846 357.064C593.767 357.064 588.839 361.992 588.839 368.071C588.839 374.15 593.767 379.078 599.846 379.078Z" fill="url(#paint11_linear_42_303)"/>
<path d="M726.349 365.625C725.558 365.625 724.8 365.947 724.241 366.521C723.682 367.094 723.368 367.872 723.368 368.683C723.368 369.494 723.682 370.271 724.241 370.845C724.8 371.418 725.558 371.74 726.349 371.74H768.083C768.874 371.74 769.632 371.418 770.191 370.845C770.75 370.271 771.064 369.494 771.064 368.683C771.064 367.872 770.75 367.094 770.191 366.521C769.632 365.947 768.874 365.625 768.083 365.625H726.349Z" fill="#D7DCF0"/>
<path d="M700.131 379.078C706.21 379.078 711.138 374.15 711.138 368.071C711.138 361.992 706.21 357.064 700.131 357.064C694.052 357.064 689.124 361.992 689.124 368.071C689.124 374.15 694.052 379.078 700.131 379.078Z" fill="url(#paint12_linear_42_303)"/>
<path d="M764.436 213.975H611.366C608.382 213.975 605.964 212.226 605.961 210.071V176.297C605.964 174.142 608.382 172.393 611.366 172.393H764.436C767.42 172.393 769.838 174.142 769.841 176.297V210.07C769.839 212.225 767.42 213.972 764.436 213.975ZM611.366 173.953C609.576 173.953 608.125 175.003 608.123 176.296V210.069C608.123 211.362 609.576 212.41 611.366 212.411H764.436C766.226 212.411 767.677 211.362 767.679 210.069V176.297C767.679 175.004 766.226 173.956 764.436 173.955L611.366 173.953Z" fill="#D7DCF0"/>
<path d="M645.918 190.738C645.052 190.739 644.221 191.097 643.609 191.734C642.996 192.371 642.651 193.235 642.65 194.135V217.916C642.651 218.816 642.996 219.68 643.609 220.317C644.221 220.953 645.052 221.312 645.918 221.313H762.904C763.771 221.312 764.601 220.953 765.214 220.317C765.827 219.68 766.171 218.816 766.172 217.916V194.135C766.171 193.235 765.827 192.371 765.214 191.734C764.601 191.097 763.771 190.739 762.904 190.738H645.918Z" fill="url(#paint13_linear_42_303)"/>
<path d="M662.218 213.975C666.271 213.975 669.556 210.689 669.556 206.637C669.556 202.584 666.271 199.299 662.218 199.299C658.166 199.299 654.88 202.584 654.88 206.637C654.88 210.689 658.166 213.975 662.218 213.975Z" fill="white"/>
<path d="M694.551 202.968C693.76 202.968 693.002 203.29 692.443 203.863C691.884 204.437 691.57 205.214 691.57 206.025C691.57 206.836 691.884 207.614 692.443 208.187C693.002 208.761 693.76 209.083 694.551 209.083H736.285C737.076 209.083 737.834 208.761 738.393 208.187C738.952 207.614 739.266 206.836 739.266 206.025C739.266 205.214 738.952 204.437 738.393 203.863C737.834 203.29 737.076 202.968 736.285 202.968H694.551Z" fill="white"/>
<path d="M649.434 135.703H495.223C492.216 135.703 489.78 133.955 489.777 131.8V98.0258C489.78 95.8707 492.216 94.1218 495.223 94.1218H649.434C652.441 94.1218 654.877 95.8707 654.88 98.0258V131.799C654.878 133.954 652.441 135.701 649.434 135.703ZM495.223 95.6821C493.419 95.6821 491.957 96.7315 491.955 98.0244V131.798C491.955 133.09 493.419 134.139 495.223 134.14H649.434C651.238 134.14 652.7 133.09 652.702 131.798V98.0258C652.702 96.7328 651.238 95.6847 649.434 95.6834L495.223 95.6821Z" fill="#D7DCF0"/>
<path d="M529.767 113.69C528.892 113.691 528.053 114.035 527.434 114.646C526.816 115.257 526.468 116.086 526.466 116.951V139.78C526.468 140.645 526.816 141.474 527.434 142.085C528.053 142.696 528.892 143.04 529.767 143.041H647.911C648.786 143.04 649.625 142.696 650.244 142.085C650.862 141.474 651.21 140.645 651.211 139.78V116.951C651.21 116.086 650.862 115.257 650.244 114.646C649.625 114.035 648.786 113.691 647.911 113.69H529.767Z" fill="url(#paint14_linear_42_303)"/>
<path d="M546.646 135.703C550.361 135.703 553.372 132.418 553.372 128.366C553.372 124.313 550.361 121.028 546.646 121.028C542.931 121.028 539.919 124.313 539.919 128.366C539.919 132.418 542.931 135.703 546.646 135.703Z" fill="white"/>
<path d="M579.59 124.697C578.799 124.697 578.041 125.019 577.482 125.592C576.923 126.165 576.609 126.943 576.609 127.754C576.609 128.565 576.923 129.343 577.482 129.916C578.041 130.489 578.799 130.811 579.59 130.811H621.325C622.115 130.811 622.873 130.489 623.432 129.916C623.991 129.343 624.306 128.565 624.306 127.754C624.306 126.943 623.991 126.165 623.432 125.592C622.873 125.019 622.115 124.697 621.325 124.697H579.59Z" fill="white"/>
</g>
<defs>
<linearGradient id="paint0_linear_42_303" x1="263.32" y1="107.536" x2="263.32" y2="115.965" gradientUnits="userSpaceOnUse">
<stop stop-color="#3561EC"/>
<stop offset="1" stop-color="#601CE9"/>
</linearGradient>
<linearGradient id="paint1_linear_42_303" x1="315.764" y1="163.529" x2="315.764" y2="240.742" gradientUnits="userSpaceOnUse">
<stop stop-color="#3561EC"/>
<stop offset="1" stop-color="#601CE9"/>
</linearGradient>
<linearGradient id="paint2_linear_42_303" x1="324.145" y1="370.458" x2="324.145" y2="390.221" gradientUnits="userSpaceOnUse">
<stop stop-color="#3561EC"/>
<stop offset="1" stop-color="#601CE9"/>
</linearGradient>
<linearGradient id="paint3_linear_42_303" x1="498" y1="178" x2="498" y2="194" gradientUnits="userSpaceOnUse">
<stop stop-color="#3561EC"/>
<stop offset="1" stop-color="#601CE9"/>
</linearGradient>
<linearGradient id="paint4_linear_42_303" x1="16.9452" y1="267.955" x2="16.9452" y2="285.077" gradientUnits="userSpaceOnUse">
<stop stop-color="#3561EC"/>
<stop offset="1" stop-color="#601CE9"/>
</linearGradient>
<linearGradient id="paint5_linear_42_303" x1="537.806" y1="437.09" x2="537.806" y2="468.607" gradientUnits="userSpaceOnUse">
<stop stop-color="#3561EC"/>
<stop offset="1" stop-color="#601CE9"/>
</linearGradient>
<linearGradient id="paint6_linear_42_303" x1="630.421" y1="286.131" x2="630.421" y2="315.483" gradientUnits="userSpaceOnUse">
<stop stop-color="#3561EC"/>
<stop offset="1" stop-color="#601CE9"/>
</linearGradient>
<linearGradient id="paint7_linear_42_303" x1="529.524" y1="294.692" x2="529.524" y2="302.03" gradientUnits="userSpaceOnUse">
<stop stop-color="#3561EC"/>
<stop offset="1" stop-color="#601CE9"/>
</linearGradient>
<linearGradient id="paint8_linear_42_303" x1="632.255" y1="289.8" x2="632.255" y2="297.138" gradientUnits="userSpaceOnUse">
<stop stop-color="#3561EC"/>
<stop offset="1" stop-color="#601CE9"/>
</linearGradient>
<linearGradient id="paint9_linear_42_303" x1="758.223" y1="283.685" x2="758.223" y2="292.246" gradientUnits="userSpaceOnUse">
<stop stop-color="#3561EC"/>
<stop offset="1" stop-color="#601CE9"/>
</linearGradient>
<linearGradient id="paint10_linear_42_303" x1="500.784" y1="357.064" x2="500.784" y2="379.078" gradientUnits="userSpaceOnUse">
<stop stop-color="#3561EC"/>
<stop offset="1" stop-color="#601CE9"/>
</linearGradient>
<linearGradient id="paint11_linear_42_303" x1="599.846" y1="357.064" x2="599.846" y2="379.078" gradientUnits="userSpaceOnUse">
<stop stop-color="#3561EC"/>
<stop offset="1" stop-color="#601CE9"/>
</linearGradient>
<linearGradient id="paint12_linear_42_303" x1="700.131" y1="357.064" x2="700.131" y2="379.078" gradientUnits="userSpaceOnUse">
<stop stop-color="#3561EC"/>
<stop offset="1" stop-color="#601CE9"/>
</linearGradient>
<linearGradient id="paint13_linear_42_303" x1="704.411" y1="190.738" x2="704.411" y2="221.313" gradientUnits="userSpaceOnUse">
<stop stop-color="#3561EC"/>
<stop offset="1" stop-color="#601CE9"/>
</linearGradient>
<linearGradient id="paint14_linear_42_303" x1="588.839" y1="113.69" x2="588.839" y2="143.041" gradientUnits="userSpaceOnUse">
<stop stop-color="#3561EC"/>
<stop offset="1" stop-color="#601CE9"/>
</linearGradient>
<clipPath id="clip0_42_303">
<rect width="520.218" height="430.492" fill="white"/>
</clipPath>
<clipPath id="clip1_42_303">
<rect width="360" height="81" fill="white" transform="translate(251 428)"/>
</clipPath>
<clipPath id="clip2_42_303">
<rect width="341.581" height="319.2" fill="white" transform="translate(452 77)"/>
</clipPath>
</defs>
</svg>
