<svg width="100" height="100" viewBox="0 0 100 100" fill="none" xmlns="http://www.w3.org/2000/svg">
<path d="M34.375 4.6875C34.375 2.08984 32.2852 0 29.6875 0C27.0898 0 25 2.08984 25 4.6875V12.5C18.1055 12.5 12.5 18.1055 12.5 25H4.6875C2.08984 25 0 27.0898 0 29.6875C0 32.2852 2.08984 34.375 4.6875 34.375H12.5V45.3125H4.6875C2.08984 45.3125 0 47.4023 0 50C0 52.5977 2.08984 54.6875 4.6875 54.6875H12.5V65.625H4.6875C2.08984 65.625 0 67.7148 0 70.3125C0 72.9102 2.08984 75 4.6875 75H12.5C12.5 81.8945 18.1055 87.5 25 87.5V95.3125C25 97.9102 27.0898 100 29.6875 100C32.2852 100 34.375 97.9102 34.375 95.3125V87.5H45.3125V95.3125C45.3125 97.9102 47.4023 100 50 100C52.5977 100 54.6875 97.9102 54.6875 95.3125V87.5H65.625V95.3125C65.625 97.9102 67.7148 100 70.3125 100C72.9102 100 75 97.9102 75 95.3125V87.5C81.8945 87.5 87.5 81.8945 87.5 75H95.3125C97.9102 75 100 72.9102 100 70.3125C100 67.7148 97.9102 65.625 95.3125 65.625H87.5V54.6875H95.3125C97.9102 54.6875 100 52.5977 100 50C100 47.4023 97.9102 45.3125 95.3125 45.3125H87.5V34.375H95.3125C97.9102 34.375 100 32.2852 100 29.6875C100 27.0898 97.9102 25 95.3125 25H87.5C87.5 18.1055 81.8945 12.5 75 12.5V4.6875C75 2.08984 72.9102 0 70.3125 0C67.7148 0 65.625 2.08984 65.625 4.6875V12.5H54.6875V4.6875C54.6875 2.08984 52.5977 0 50 0C47.4023 0 45.3125 2.08984 45.3125 4.6875V12.5H34.375V4.6875ZM31.25 25H68.75C72.207 25 75 27.793 75 31.25V68.75C75 72.207 72.207 75 68.75 75H31.25C27.793 75 25 72.207 25 68.75V31.25C25 27.793 27.793 25 31.25 25ZM68.75 31.25H31.25V68.75H68.75V31.25Z" fill="url(#paint0_linear_50_2)"/>
<defs>
<linearGradient id="paint0_linear_50_2" x1="30" y1="-8.76188e-07" x2="79" y2="95" gradientUnits="userSpaceOnUse">
<stop stop-color="#07AAEF"/>
<stop offset="1" stop-color="#601CE9"/>
</linearGradient>
</defs>
</svg>
